<?xml version="1.0" standalone="no"?>
<svg xmlns:xlink="http://www.w3.org/1999/xlink" id="wave" style="transform:rotate(180deg); transition: 0.3s" viewBox="0 0 1440 490" version="1.1" xmlns="http://www.w3.org/2000/svg"><defs><linearGradient id="sw-gradient-0" x1="0" x2="0" y1="1" y2="0"><stop stop-color="rgba(98, 173, 176, 1)" offset="0%"/><stop stop-color="rgba(69, 44, 207, 1)" offset="100%"/></linearGradient></defs><path style="transform:translate(0, 0px); opacity:1" fill="url(#sw-gradient-0)" d="M0,441L48,432.8C96,425,192,408,288,375.7C384,343,480,294,576,261.3C672,229,768,212,864,228.7C960,245,1056,294,1152,318.5C1248,343,1344,343,1440,302.2C1536,261,1632,180,1728,122.5C1824,65,1920,33,2016,73.5C2112,114,2208,229,2304,245C2400,261,2496,180,2592,163.3C2688,147,2784,196,2880,236.8C2976,278,3072,310,3168,277.7C3264,245,3360,147,3456,130.7C3552,114,3648,180,3744,196C3840,212,3936,180,4032,196C4128,212,4224,278,4320,277.7C4416,278,4512,212,4608,163.3C4704,114,4800,82,4896,106.2C4992,131,5088,212,5184,220.5C5280,229,5376,163,5472,130.7C5568,98,5664,98,5760,122.5C5856,147,5952,196,6048,236.8C6144,278,6240,310,6336,285.8C6432,261,6528,180,6624,147C6720,114,6816,131,6864,138.8L6912,147L6912,490L6864,490C6816,490,6720,490,6624,490C6528,490,6432,490,6336,490C6240,490,6144,490,6048,490C5952,490,5856,490,5760,490C5664,490,5568,490,5472,490C5376,490,5280,490,5184,490C5088,490,4992,490,4896,490C4800,490,4704,490,4608,490C4512,490,4416,490,4320,490C4224,490,4128,490,4032,490C3936,490,3840,490,3744,490C3648,490,3552,490,3456,490C3360,490,3264,490,3168,490C3072,490,2976,490,2880,490C2784,490,2688,490,2592,490C2496,490,2400,490,2304,490C2208,490,2112,490,2016,490C1920,490,1824,490,1728,490C1632,490,1536,490,1440,490C1344,490,1248,490,1152,490C1056,490,960,490,864,490C768,490,672,490,576,490C480,490,384,490,288,490C192,490,96,490,48,490L0,490Z"/><defs><linearGradient id="sw-gradient-1" x1="0" x2="0" y1="1" y2="0"><stop stop-color="rgba(98, 173, 176, 1)" offset="0%"/><stop stop-color="rgba(69, 44, 207, 1)" offset="100%"/></linearGradient></defs><path style="transform:translate(0, 50px); opacity:0.9" fill="url(#sw-gradient-1)" d="M0,49L48,73.5C96,98,192,147,288,138.8C384,131,480,65,576,65.3C672,65,768,131,864,155.2C960,180,1056,163,1152,130.7C1248,98,1344,49,1440,49C1536,49,1632,98,1728,138.8C1824,180,1920,212,2016,204.2C2112,196,2208,147,2304,114.3C2400,82,2496,65,2592,122.5C2688,180,2784,310,2880,310.3C2976,310,3072,180,3168,106.2C3264,33,3360,16,3456,8.2C3552,0,3648,0,3744,73.5C3840,147,3936,294,4032,334.8C4128,376,4224,310,4320,253.2C4416,196,4512,147,4608,147C4704,147,4800,196,4896,204.2C4992,212,5088,180,5184,138.8C5280,98,5376,49,5472,57.2C5568,65,5664,131,5760,163.3C5856,196,5952,196,6048,196C6144,196,6240,196,6336,171.5C6432,147,6528,98,6624,122.5C6720,147,6816,245,6864,294L6912,343L6912,490L6864,490C6816,490,6720,490,6624,490C6528,490,6432,490,6336,490C6240,490,6144,490,6048,490C5952,490,5856,490,5760,490C5664,490,5568,490,5472,490C5376,490,5280,490,5184,490C5088,490,4992,490,4896,490C4800,490,4704,490,4608,490C4512,490,4416,490,4320,490C4224,490,4128,490,4032,490C3936,490,3840,490,3744,490C3648,490,3552,490,3456,490C3360,490,3264,490,3168,490C3072,490,2976,490,2880,490C2784,490,2688,490,2592,490C2496,490,2400,490,2304,490C2208,490,2112,490,2016,490C1920,490,1824,490,1728,490C1632,490,1536,490,1440,490C1344,490,1248,490,1152,490C1056,490,960,490,864,490C768,490,672,490,576,490C480,490,384,490,288,490C192,490,96,490,48,490L0,490Z"/></svg>